<svg xmlns="http://www.w3.org/2000/svg" width="1600" height="900" viewBox="0 0 1600 900" role="img" aria-labelledby="title description">
  <title id="title">Project 01: Model Economy</title>
  <desc id="description">The first small public project in an ongoing independent builder series.</desc>
  <rect width="1600" height="900" fill="#141719"/>
  <path d="M84 112H1516M84 788H1516" fill="none" stroke="#647077" stroke-width="2"/>
  <g font-family="Arial, Helvetica, sans-serif">
    <text x="84" y="84" fill="#AEB8BC" font-size="20" font-weight="700" letter-spacing="4">BUILDING SMALL TOOLS IN PUBLIC</text>
    <text x="84" y="302" fill="#34C6A4" font-size="24" font-weight="700" letter-spacing="5">PROJECT 01</text>
    <text x="84" y="430" fill="#F5F7F7" font-size="92" font-weight="700" letter-spacing="1">MODEL ECONOMY</text>
    <text x="88" y="495" fill="#C8D0D2" font-size="31">A community Codex plugin for cost-aware development routing.</text>
    <rect x="84" y="610" width="440" height="62" rx="2" fill="#F6B74D"/>
    <text x="112" y="651" fill="#141719" font-size="22" font-weight="700" letter-spacing="2">SMALL START · REAL RELEASE</text>
    <text x="84" y="842" fill="#AEB8BC" font-size="18">Open source · policy-level caps · no fixed savings claim</text>
  </g>
  <g fill="none" stroke="#34C6A4" stroke-width="5" stroke-linecap="square">
    <path d="M1060 307H1180V240H1300V307H1420"/>
    <path d="M1060 427H1180V494H1300V427H1420"/>
  </g>
  <g fill="#1D2326" stroke="#7B878C" stroke-width="2">
    <rect x="980" y="280" width="160" height="174" rx="3"/>
    <rect x="1160" y="174" width="160" height="132" rx="3"/>
    <rect x="1160" y="454" width="160" height="132" rx="3"/>
    <rect x="1340" y="280" width="160" height="174" rx="3"/>
  </g>
  <circle cx="1060" cy="367" r="18" fill="#34C6A4"/>
  <circle cx="1420" cy="367" r="18" fill="#F6B74D"/>
</svg>
